<svg version="1.1" xmlns="http://www.w3.org/2000/svg" xmlns:xlink="http://www.w3.org/1999/xlink" width="1140" height="762"><defs><clipPath id="vSOFthafQmJO"><path fill="none" stroke="none" d=" M 0 0 L 1140 0 L 1140 762 L 0 762 L 0 0 Z"/></clipPath></defs><g transform="scale(1,1)" clip-path="url(#vSOFthafQmJO)"><g><rect fill="rgb(255,255,255)" stroke="none" x="0" y="0" width="1140" height="763" fill-opacity="1"/><path fill="none" stroke="rgb(192,192,192)" paint-order="fill stroke markers" d=" M 20.5 0.5 L 20.5 762.5 M 20.5 0.5 L 20.5 762.5 M 99.5 0.5 L 99.5 762.5 M 257.5 0.5 L 257.5 762.5 M 336.5 0.5 L 336.5 762.5 M 415.5 0.5 L 415.5 762.5 M 494.5 0.5 L 494.5 762.5 M 573.5 0.5 L 573.5 762.5 M 652.5 0.5 L 652.5 762.5 M 731.5 0.5 L 731.5 762.5 M 810.5 0.5 L 810.5 762.5 M 889.5 0.5 L 889.5 762.5 M 968.5 0.5 L 968.5 762.5 M 1047.5 0.5 L 1047.5 762.5 M 1126.5 0.5 L 1126.5 762.5" stroke-opacity="1" stroke-linecap="round" stroke-linejoin="round" stroke-miterlimit="10"/><path fill="none" stroke="rgb(192,192,192)" paint-order="fill stroke markers" d=" M 5.5 0.5 L 5.5 762.5 M 36.5 0.5 L 36.5 762.5 M 52.5 0.5 L 52.5 762.5 M 68.5 0.5 L 68.5 762.5 M 84.5 0.5 L 84.5 762.5 M 115.5 0.5 L 115.5 762.5 M 131.5 0.5 L 131.5 762.5 M 147.5 0.5 L 147.5 762.5 M 163.5 0.5 L 163.5 762.5 M 194.5 0.5 L 194.5 762.5 M 210.5 0.5 L 210.5 762.5 M 226.5 0.5 L 226.5 762.5 M 242.5 0.5 L 242.5 762.5 M 273.5 0.5 L 273.5 762.5 M 289.5 0.5 L 289.5 762.5 M 305.5 0.5 L 305.5 762.5 M 321.5 0.5 L 321.5 762.5 M 352.5 0.5 L 352.5 762.5 M 368.5 0.5 L 368.5 762.5 M 384.5 0.5 L 384.5 762.5 M 400.5 0.5 L 400.5 762.5 M 431.5 0.5 L 431.5 762.5 M 447.5 0.5 L 447.5 762.5 M 463.5 0.5 L 463.5 762.5 M 479.5 0.5 L 479.5 762.5 M 510.5 0.5 L 510.5 762.5 M 526.5 0.5 L 526.5 762.5 M 542.5 0.5 L 542.5 762.5 M 558.5 0.5 L 558.5 762.5 M 589.5 0.5 L 589.5 762.5 M 605.5 0.5 L 605.5 762.5 M 621.5 0.5 L 621.5 762.5 M 637.5 0.5 L 637.5 762.5 M 668.5 0.5 L 668.5 762.5 M 684.5 0.5 L 684.5 762.5 M 700.5 0.5 L 700.5 762.5 M 716.5 0.5 L 716.5 762.5 M 747.5 0.5 L 747.5 762.5 M 763.5 0.5 L 763.5 762.5 M 779.5 0.5 L 779.5 762.5 M 795.5 0.5 L 795.5 762.5 M 826.5 0.5 L 826.5 762.5 M 842.5 0.5 L 842.5 762.5 M 858.5 0.5 L 858.5 762.5 M 874.5 0.5 L 874.5 762.5 M 905.5 0.5 L 905.5 762.5 M 921.5 0.5 L 921.5 762.5 M 937.5 0.5 L 937.5 762.5 M 953.5 0.5 L 953.5 762.5 M 984.5 0.5 L 984.5 762.5 M 1000.5 0.5 L 1000.5 762.5 M 1016.5 0.5 L 1016.5 762.5 M 1032.5 0.5 L 1032.5 762.5 M 1063.5 0.5 L 1063.5 762.5 M 1079.5 0.5 L 1079.5 762.5 M 1095.5 0.5 L 1095.5 762.5 M 1111.5 0.5 L 1111.5 762.5" stroke-opacity="0.23529411764705882" stroke-linecap="round" stroke-linejoin="round" stroke-miterlimit="10"/><path fill="none" stroke="rgb(192,192,192)" paint-order="fill stroke markers" d=" M 0.5 1.5 L 1140.5 1.5 M 0.5 1.5 L 1140.5 1.5 M 0.5 80.5 L 1140.5 80.5 M 0.5 159.5 L 1140.5 159.5 M 0.5 238.5 L 1140.5 238.5 M 0.5 317.5 L 1140.5 317.5 M 0.5 396.5 L 1140.5 396.5 M 0.5 554.5 L 1140.5 554.5 M 0.5 633.5 L 1140.5 633.5 M 0.5 712.5 L 1140.5 712.5" stroke-opacity="1" stroke-linecap="round" stroke-linejoin="round" stroke-miterlimit="10"/><path fill="none" stroke="rgb(192,192,192)" paint-order="fill stroke markers" d=" M 0.5 1.5 L 1140.5 1.5 M 0.5 17.5 L 1140.5 17.5 M 0.5 33.5 L 1140.5 33.5 M 0.5 49.5 L 1140.5 49.5 M 0.5 64.5 L 1140.5 64.5 M 0.5 96.5 L 1140.5 96.5 M 0.5 112.5 L 1140.5 112.5 M 0.5 128.5 L 1140.5 128.5 M 0.5 143.5 L 1140.5 143.5 M 0.5 175.5 L 1140.5 175.5 M 0.5 191.5 L 1140.5 191.5 M 0.5 207.5 L 1140.5 207.5 M 0.5 222.5 L 1140.5 222.5 M 0.5 254.5 L 1140.5 254.5 M 0.5 270.5 L 1140.5 270.5 M 0.5 286.5 L 1140.5 286.5 M 0.5 301.5 L 1140.5 301.5 M 0.5 333.5 L 1140.5 333.5 M 0.5 349.5 L 1140.5 349.5 M 0.5 365.5 L 1140.5 365.5 M 0.5 380.5 L 1140.5 380.5 M 0.5 412.5 L 1140.5 412.5 M 0.5 428.5 L 1140.5 428.5 M 0.5 444.5 L 1140.5 444.5 M 0.5 459.5 L 1140.5 459.5 M 0.5 491.5 L 1140.5 491.5 M 0.5 507.5 L 1140.5 507.5 M 0.5 523.5 L 1140.5 523.5 M 0.5 538.5 L 1140.5 538.5 M 0.5 570.5 L 1140.5 570.5 M 0.5 586.5 L 1140.5 586.5 M 0.5 602.5 L 1140.5 602.5 M 0.5 617.5 L 1140.5 617.5 M 0.5 649.5 L 1140.5 649.5 M 0.5 665.5 L 1140.5 665.5 M 0.5 681.5 L 1140.5 681.5 M 0.5 696.5 L 1140.5 696.5 M 0.5 728.5 L 1140.5 728.5 M 0.5 744.5 L 1140.5 744.5 M 0.5 760.5 L 1140.5 760.5" stroke-opacity="0.23529411764705882" stroke-linecap="round" stroke-linejoin="round" stroke-miterlimit="10"/><path fill="none" stroke="rgb(37,37,37)" paint-order="fill stroke markers" d=" M 178.5 2.5 L 178.5 762.5" stroke-opacity="1" stroke-miterlimit="10"/><path fill="none" stroke="rgb(37,37,37)" paint-order="fill stroke markers" d=" M 178.5 1.5 L 174.5 5.5" stroke-opacity="1" stroke-miterlimit="10"/><path fill="none" stroke="rgb(37,37,37)" paint-order="fill stroke markers" d=" M 178.5 1.5 L 182.5 5.5" stroke-opacity="1" stroke-miterlimit="10"/><path fill="none" stroke="rgb(37,37,37)" paint-order="fill stroke markers" d=" M 0.5 475.5 L 1138.5 475.5" stroke-opacity="1" stroke-miterlimit="10"/><path fill="none" stroke="rgb(37,37,37)" paint-order="fill stroke markers" d=" M 1139.5 475.5 L 1135.5 471.5" stroke-opacity="1" stroke-miterlimit="10"/><path fill="none" stroke="rgb(37,37,37)" paint-order="fill stroke markers" d=" M 1139.5 475.5 L 1135.5 479.5" stroke-opacity="1" stroke-miterlimit="10"/><text fill="rgb(37,37,37)" stroke="none" font-family="geogebra-sans-serif, sans-serif" font-size="12px" font-style="normal" font-weight="normal" text-decoration="normal" x="15" y="491" text-anchor="start" dominant-baseline="alphabetic" fill-opacity="1">–4</text><text fill="rgb(37,37,37)" stroke="none" font-family="geogebra-sans-serif, sans-serif" font-size="12px" font-style="normal" font-weight="normal" text-decoration="normal" x="94" y="491" text-anchor="start" dominant-baseline="alphabetic" fill-opacity="1">–2</text><text fill="rgb(37,37,37)" stroke="none" font-family="geogebra-sans-serif, sans-serif" font-size="12px" font-style="normal" font-weight="normal" text-decoration="normal" x="255" y="491" text-anchor="start" dominant-baseline="alphabetic" fill-opacity="1">2</text><text fill="rgb(37,37,37)" stroke="none" font-family="geogebra-sans-serif, sans-serif" font-size="12px" font-style="normal" font-weight="normal" text-decoration="normal" x="334" y="491" text-anchor="start" dominant-baseline="alphabetic" fill-opacity="1">4</text><text fill="rgb(37,37,37)" stroke="none" font-family="geogebra-sans-serif, sans-serif" font-size="12px" font-style="normal" font-weight="normal" text-decoration="normal" x="413" y="491" text-anchor="start" dominant-baseline="alphabetic" fill-opacity="1">6</text><text fill="rgb(37,37,37)" stroke="none" font-family="geogebra-sans-serif, sans-serif" font-size="12px" font-style="normal" font-weight="normal" text-decoration="normal" x="492" y="491" text-anchor="start" dominant-baseline="alphabetic" fill-opacity="1">8</text><text fill="rgb(37,37,37)" stroke="none" font-family="geogebra-sans-serif, sans-serif" font-size="12px" font-style="normal" font-weight="normal" text-decoration="normal" x="568" y="491" text-anchor="start" dominant-baseline="alphabetic" fill-opacity="1">10</text><text fill="rgb(37,37,37)" stroke="none" font-family="geogebra-sans-serif, sans-serif" font-size="12px" font-style="normal" font-weight="normal" text-decoration="normal" x="647" y="491" text-anchor="start" dominant-baseline="alphabetic" fill-opacity="1">12</text><text fill="rgb(37,37,37)" stroke="none" font-family="geogebra-sans-serif, sans-serif" font-size="12px" font-style="normal" font-weight="normal" text-decoration="normal" x="726" y="491" text-anchor="start" dominant-baseline="alphabetic" fill-opacity="1">14</text><text fill="rgb(37,37,37)" stroke="none" font-family="geogebra-sans-serif, sans-serif" font-size="12px" font-style="normal" font-weight="normal" text-decoration="normal" x="805" y="491" text-anchor="start" dominant-baseline="alphabetic" fill-opacity="1">16</text><text fill="rgb(37,37,37)" stroke="none" font-family="geogebra-sans-serif, sans-serif" font-size="12px" font-style="normal" font-weight="normal" text-decoration="normal" x="884" y="491" text-anchor="start" dominant-baseline="alphabetic" fill-opacity="1">18</text><text fill="rgb(37,37,37)" stroke="none" font-family="geogebra-sans-serif, sans-serif" font-size="12px" font-style="normal" font-weight="normal" text-decoration="normal" x="963" y="491" text-anchor="start" dominant-baseline="alphabetic" fill-opacity="1">20</text><text fill="rgb(37,37,37)" stroke="none" font-family="geogebra-sans-serif, sans-serif" font-size="12px" font-style="normal" font-weight="normal" text-decoration="normal" x="1042" y="491" text-anchor="start" dominant-baseline="alphabetic" fill-opacity="1">22</text><text fill="rgb(37,37,37)" stroke="none" font-family="geogebra-sans-serif, sans-serif" font-size="12px" font-style="normal" font-weight="normal" text-decoration="normal" x="1121" y="491" text-anchor="start" dominant-baseline="alphabetic" fill-opacity="1">24</text><text fill="rgb(37,37,37)" stroke="none" font-family="geogebra-sans-serif, sans-serif" font-size="12px" font-style="normal" font-weight="normal" text-decoration="normal" x="158" y="717" text-anchor="start" dominant-baseline="alphabetic" fill-opacity="1">–6</text><text fill="rgb(37,37,37)" stroke="none" font-family="geogebra-sans-serif, sans-serif" font-size="12px" font-style="normal" font-weight="normal" text-decoration="normal" x="158" y="638" text-anchor="start" dominant-baseline="alphabetic" fill-opacity="1">–4</text><text fill="rgb(37,37,37)" stroke="none" font-family="geogebra-sans-serif, sans-serif" font-size="12px" font-style="normal" font-weight="normal" text-decoration="normal" x="158" y="559" text-anchor="start" dominant-baseline="alphabetic" fill-opacity="1">–2</text><text fill="rgb(37,37,37)" stroke="none" font-family="geogebra-sans-serif, sans-serif" font-size="12px" font-style="normal" font-weight="normal" text-decoration="normal" x="164" y="401" text-anchor="start" dominant-baseline="alphabetic" fill-opacity="1">2</text><text fill="rgb(37,37,37)" stroke="none" font-family="geogebra-sans-serif, sans-serif" font-size="12px" font-style="normal" font-weight="normal" text-decoration="normal" x="164" y="322" text-anchor="start" dominant-baseline="alphabetic" fill-opacity="1">4</text><text fill="rgb(37,37,37)" stroke="none" font-family="geogebra-sans-serif, sans-serif" font-size="12px" font-style="normal" font-weight="normal" text-decoration="normal" x="164" y="243" text-anchor="start" dominant-baseline="alphabetic" fill-opacity="1">6</text><text fill="rgb(37,37,37)" stroke="none" font-family="geogebra-sans-serif, sans-serif" font-size="12px" font-style="normal" font-weight="normal" text-decoration="normal" x="164" y="164" text-anchor="start" dominant-baseline="alphabetic" fill-opacity="1">8</text><text fill="rgb(37,37,37)" stroke="none" font-family="geogebra-sans-serif, sans-serif" font-size="12px" font-style="normal" font-weight="normal" text-decoration="normal" x="158" y="85" text-anchor="start" dominant-baseline="alphabetic" fill-opacity="1">10</text><text fill="rgb(37,37,37)" stroke="none" font-family="geogebra-sans-serif, sans-serif" font-size="12px" font-style="normal" font-weight="normal" text-decoration="normal" x="164" y="491" text-anchor="start" dominant-baseline="alphabetic" fill-opacity="1">0</text><path fill="none" stroke="rgb(192,192,192)" paint-order="fill stroke markers" d=" M 179 -10 L 179 772" stroke-opacity="1" stroke-linecap="round" stroke-linejoin="round" stroke-miterlimit="10" stroke-width="2.5"/><path fill="rgb(192,192,192)" stroke="none" paint-order="stroke fill markers" d=" M 179 -10 L 179 772 L 1150 772 L 1150 -10 Z" fill-opacity="0.24705882352941178"/><text fill="rgb(192,192,192)" stroke="none" font-family="geogebra-sans-serif, sans-serif" font-size="16px" font-style="normal" font-weight="normal" text-decoration="normal" x="169" y="490" text-anchor="start" dominant-baseline="alphabetic" fill-opacity="1">d</text><path fill="none" stroke="rgb(128,128,128)" paint-order="fill stroke markers" d=" M -10 476 L 1150 476" stroke-opacity="1" stroke-linecap="round" stroke-linejoin="round" stroke-miterlimit="10" stroke-width="2.5"/><path fill="none" stroke="rgb(128,128,128)" paint-order="fill stroke markers" d=" M -10 -10 L 1150 -10" stroke-opacity="1" stroke-linecap="round" stroke-linejoin="round" stroke-miterlimit="10" stroke-width="2.5"/><path fill="rgb(128,128,128)" stroke="none" paint-order="stroke fill markers" d=" M -10 -10 L -10 476 L 1150 476 L 1150 -10 Z" fill-opacity="0.24705882352941178"/><text fill="rgb(128,128,128)" stroke="none" font-family="geogebra-sans-serif, sans-serif" font-size="16px" font-style="normal" font-weight="normal" text-decoration="normal" x="184" y="471" text-anchor="start" dominant-baseline="alphabetic" fill-opacity="1">e</text><path fill="none" stroke="rgb(151,95,168)" paint-order="fill stroke markers" d=" M -5 580.6580856007184 L 580.6580856007184 -5" stroke-opacity="1" stroke-linecap="round" stroke-linejoin="round" stroke-miterlimit="10" stroke-width="0.5"/><text fill="rgb(151,95,168)" stroke="none" font-family="geogebra-sans-serif, sans-serif" font-size="16px" font-style="normal" font-weight="normal" text-decoration="normal" x="24" y="556" text-anchor="start" dominant-baseline="alphabetic" fill-opacity="1">a</text><path fill="rgb(151,95,168)" stroke="none" paint-order="stroke fill markers" d=" M 575.6580856007184 0 L 0 575.6580856007184 L 0 763 L 1140 763 L 1140 0 Z" fill-opacity="0.7490196078431373"/><text fill="rgb(151,95,168)" stroke="none" font-family="geogebra-sans-serif, sans-serif" font-size="16px" font-style="normal" font-weight="normal" text-decoration="normal" x="24" y="556" text-anchor="start" dominant-baseline="alphabetic" fill-opacity="1">a</text><path fill="none" stroke="rgb(255,215,0)" paint-order="fill stroke markers" d=" M -5 246.84781711030047 L 863.5869714828327 768" stroke-opacity="1" stroke-linecap="round" stroke-linejoin="round" stroke-miterlimit="10" stroke-width="2.5"/><text fill="rgb(255,215,0)" stroke="none" font-family="geogebra-sans-serif, sans-serif" font-size="16px" font-style="normal" font-weight="normal" text-decoration="normal" x="24" y="271" text-anchor="start" dominant-baseline="alphabetic" fill-opacity="1">b</text><path fill="rgb(255,215,0)" stroke="none" paint-order="stroke fill markers" d=" M 0 0 L 0 249.84781711030047 L 1.7763568394002505e-15 249.84781711030047 L 855.2536381494995 763 L 1140 763 L 1140 0 Z" fill-opacity="0.24705882352941178"/><text fill="rgb(255,215,0)" stroke="none" font-family="geogebra-sans-serif, sans-serif" font-size="16px" font-style="normal" font-weight="normal" text-decoration="normal" x="24" y="271" text-anchor="start" dominant-baseline="alphabetic" fill-opacity="1">b</text><path fill="none" stroke="rgb(255,0,51)" paint-order="fill stroke markers" d=" M 570.7700718051252 768 L -5 48.2874102435936" stroke-opacity="1" stroke-linecap="round" stroke-linejoin="round" stroke-miterlimit="10" stroke-width="2.5"/><text fill="rgb(255,0,51)" stroke="none" font-family="geogebra-sans-serif, sans-serif" font-size="16px" font-style="normal" font-weight="normal" text-decoration="normal" x="24" y="76" text-anchor="start" dominant-baseline="alphabetic" fill-opacity="1">c</text><path fill="rgb(255,0,51)" stroke="none" paint-order="stroke fill markers" d=" M 0 0 L 0 54.53741024359359 L -5.329070518200751e-15 54.53741024359359 L 566.7700718051252 763 L 1140 763 L 1140 0 Z" fill-opacity="0.24705882352941178"/><text fill="rgb(255,0,51)" stroke="none" font-family="geogebra-sans-serif, sans-serif" font-size="16px" font-style="normal" font-weight="normal" text-decoration="normal" x="24" y="76" text-anchor="start" dominant-baseline="alphabetic" fill-opacity="1">c</text></g></g></svg>